<svg width="20" height="19" viewBox="0 0 20 19" fill="none" xmlns="http://www.w3.org/2000/svg">
<path fill-rule="evenodd" clip-rule="evenodd" d="M19.6462 17.8439C18.2009 15.3452 15.9736 13.5534 13.3742 12.7041C16.017 11.1308 17.283 7.98576 16.4671 5.02032C15.6512 2.05489 12.9547 1.30326e-05 9.87905 1.30326e-05C6.80343 1.30326e-05 4.10686 2.05489 3.29099 5.02032C2.47513 7.98576 3.74108 11.1308 6.38386 12.7041C3.78453 13.5525 1.55722 15.3442 0.111884 17.8439C-0.0324121 18.0792 -0.0376519 18.3742 0.098199 18.6145C0.23405 18.8547 0.489588 19.0023 0.765583 19C1.04158 18.9976 1.29455 18.8456 1.42626 18.6031C3.21418 15.5131 6.37437 13.6683 9.87905 13.6683C13.3837 13.6683 16.5439 15.5131 18.3318 18.6031C18.4635 18.8456 18.7165 18.9976 18.9925 19C19.2685 19.0023 19.524 18.8547 19.6599 18.6145C19.7957 18.3742 19.7905 18.0792 19.6462 17.8439ZM4.56462 6.83543C4.56462 3.90035 6.94397 1.521 9.87905 1.521C12.8141 1.521 15.1935 3.90035 15.1935 6.83543C15.1935 9.77051 12.8141 12.1499 9.87905 12.1499C6.94527 12.1467 4.56775 9.76921 4.56462 6.83543Z" fill="#0F1C0D"/>
</svg>
