<svg width="23" height="20" viewBox="0 0 23 20" fill="none" xmlns="http://www.w3.org/2000/svg">
<path fill-rule="evenodd" clip-rule="evenodd" d="M13.0333 6.51816C13.0333 5.88304 13.5482 5.36816 14.1833 5.36816C14.8185 5.36816 15.3333 5.88304 15.3333 6.51816C15.3333 7.15329 14.8185 7.66816 14.1833 7.66816C13.5482 7.66816 13.0333 7.15329 13.0333 6.51816ZM8.81667 5.36816C8.18154 5.36816 7.66667 5.88304 7.66667 6.51816C7.66667 7.15329 8.18154 7.66816 8.81667 7.66816C9.45179 7.66816 9.96667 7.15329 9.96667 6.51816C9.96667 5.88304 9.45179 5.36816 8.81667 5.36816ZM19.9333 11.5015C19.9354 12.2457 19.8388 12.9869 19.6458 13.7057L21.7772 14.6372C22.1042 14.7861 22.2839 15.1423 22.2094 15.4939C22.1348 15.8455 21.826 16.0981 21.4667 16.1015C21.3611 16.1017 21.2566 16.0799 21.16 16.0373L19.1073 15.1432C17.7057 18.0721 14.747 19.9363 11.5 19.9363C8.25296 19.9363 5.29431 18.0721 3.89275 15.1432L1.84 16.0373C1.74338 16.0799 1.63892 16.1017 1.53333 16.1015C1.17047 16.1013 0.857454 15.8467 0.783308 15.4915C0.709161 15.1363 0.894192 14.7777 1.22667 14.6324L3.35417 13.7057C3.16123 12.9869 3.06456 12.2457 3.06667 11.5015V10.7348H0.766667C0.343248 10.7348 0 10.3916 0 9.96816C0 9.54475 0.343248 9.2015 0.766667 9.2015H3.06667V8.43483C3.06456 7.69062 3.16123 6.94943 3.35417 6.23066L1.22667 5.30396C0.969559 5.1984 0.789715 4.96196 0.756629 4.686C0.723544 4.41004 0.842399 4.13779 1.06727 3.97445C1.29213 3.8111 1.5878 3.78225 1.84 3.89904L3.89275 4.79316C5.29431 1.86418 8.25296 3.65575e-06 11.5 3.65575e-06C14.747 3.65575e-06 17.7057 1.86418 19.1073 4.79316L21.16 3.89616C21.5456 3.73785 21.987 3.91663 22.1538 4.29864C22.3206 4.68066 22.1516 5.12593 21.7733 5.30108L19.6458 6.23546C19.8388 6.95422 19.9354 7.69542 19.9333 8.43962V9.20629H22.2333C22.6568 9.20629 23 9.54954 23 9.97296C23 10.3964 22.6568 10.7396 22.2333 10.7396H19.9333V11.5015ZM4.6 9.2015H18.4V8.43483C18.4 4.62407 15.3108 1.53483 11.5 1.53483C7.68923 1.53483 4.6 4.62407 4.6 8.43483V9.2015ZM10.7333 18.3574V10.7348H4.6V11.5015C4.60418 15.0137 7.24323 17.9637 10.7333 18.3574ZM18.4 11.5015V10.7348H12.2667V18.3574C15.7568 17.9637 18.3958 15.0137 18.4 11.5015Z" fill="#121712"/>
</svg>
