<svg width="17" height="21" viewBox="0 0 17 21" fill="none" xmlns="http://www.w3.org/2000/svg">
<path fill-rule="evenodd" clip-rule="evenodd" d="M12.5626 3.72636C11.4046 2.38894 10.1013 1.18463 8.67666 0.135695C8.41833 -0.0452767 8.07437 -0.0452767 7.81603 0.135695C6.39406 1.18507 5.09323 2.38936 3.93755 3.72636C1.36033 6.68608 0 9.80612 0 12.7499C0 17.3063 3.69369 21 8.2501 21C12.8065 21 16.5002 17.3063 16.5002 12.7499C16.5002 9.80612 15.1399 6.68608 12.5626 3.72636ZM8.2501 19.5C4.52384 19.4958 1.50415 16.4762 1.50002 12.7499C1.50002 7.38453 6.70039 2.90604 8.2501 1.68728C9.7998 2.90604 15.0002 7.38265 15.0002 12.7499C14.996 16.4762 11.9763 19.4958 8.2501 19.5ZM13.4898 13.6255C13.0915 15.8504 11.3497 17.5918 9.12479 17.9897C9.08355 17.9963 9.04187 17.9997 9.0001 18C8.61003 17.9999 8.28516 17.7008 8.25287 17.312C8.22057 16.9233 8.49165 16.5747 8.87635 16.5103C10.4298 16.2487 11.7479 14.9306 12.0114 13.3743C12.0808 12.9658 12.4682 12.6908 12.8767 12.7602C13.2852 12.8296 13.5602 13.217 13.4908 13.6255H13.4898Z" fill="#121712"/>
</svg>
