<svg width="23" height="18" viewBox="0 0 23 18" fill="none" xmlns="http://www.w3.org/2000/svg">
<path fill-rule="evenodd" clip-rule="evenodd" d="M22.4624 0.738985C22.4403 0.359175 22.1372 0.0561367 21.7574 0.0339565C16.9047 -0.247305 13.0083 1.22838 11.3339 3.99224C10.2276 5.8195 10.2294 8.03866 11.3189 10.1556C10.6988 10.8938 10.2456 11.7573 9.99037 12.687L8.465 11.156C9.19815 9.62497 9.17003 8.02928 8.37124 6.7036C7.13369 4.66071 4.27701 3.56566 0.730308 3.7738C0.350498 3.79598 0.0474597 4.09901 0.0252794 4.47882C-0.183792 8.02553 0.91219 10.8822 2.95509 12.1198C3.62924 12.5316 4.40391 12.7496 5.19393 12.7498C5.96074 12.7403 6.71562 12.5587 7.40277 12.2182L9.74661 14.562V17.25C9.74661 17.6642 10.0824 18 10.4966 18C10.9109 18 11.2467 17.6642 11.2467 17.25V14.4852C11.2433 13.292 11.6494 12.1337 12.397 11.2038C13.3617 11.7079 14.4316 11.9777 15.52 11.9913C16.5722 11.9947 17.605 11.7072 18.5042 11.1607C21.268 9.48809 22.7475 5.59168 22.4624 0.738985ZM3.72855 10.8372C2.29037 9.96624 1.47659 7.90459 1.49628 5.24948C4.15138 5.22698 6.21303 6.04358 7.084 7.48176C7.53871 8.23179 7.61278 9.10651 7.31464 10.0075L5.02611 7.71896C4.73122 7.4388 4.26677 7.44474 3.97916 7.73236C3.69154 8.01998 3.68559 8.48443 3.96575 8.77931L6.25428 11.0678C5.35331 11.366 4.47952 11.2919 3.72855 10.8372ZM17.7269 9.87905C16.4706 10.6394 14.994 10.6975 13.494 10.0666L18.5276 5.03197C18.8078 4.73709 18.8018 4.27264 18.5142 3.98502C18.2266 3.69741 17.7621 3.69146 17.4672 3.97162L12.4327 8.99963C11.7989 7.49957 11.8561 6.02201 12.6202 4.76665C13.9271 2.61031 17.0266 1.40839 20.9952 1.5012C21.0852 5.46886 19.8851 8.57212 17.7269 9.87905Z" fill="#121712"/>
</svg>
