<svg width="23" height="18" viewBox="0 0 23 18" fill="none" xmlns="http://www.w3.org/2000/svg">
<path fill-rule="evenodd" clip-rule="evenodd" d="M22.4624 0.739044C22.4402 0.359235 22.1371 0.0561976 21.7573 0.0340174C16.9047 -0.247243 13.0083 1.22844 11.3338 3.99229C10.2275 5.81955 10.2294 8.03869 11.3188 10.1556C10.6987 10.8938 10.2456 11.7573 9.99034 12.687L8.46497 11.156C9.19812 9.625 9.16999 8.02932 8.37122 6.70364C7.13367 4.66075 4.277 3.56571 0.730306 3.77384C0.350497 3.79602 0.0474595 4.09906 0.0252793 4.47887C-0.183791 8.02557 0.912187 10.8822 2.95508 12.1198C3.62922 12.5317 4.4039 12.7497 5.19391 12.7498C5.96072 12.7404 6.7156 12.5587 7.40274 12.2182L9.74658 14.5621V17.25C9.74658 17.6642 10.0824 18 10.4966 18C10.9108 18 11.2466 17.6642 11.2466 17.25V14.4852C11.2433 13.292 11.6493 12.1337 12.397 11.2038C13.3617 11.708 14.4315 11.9777 15.5199 11.9913C16.5722 11.9947 17.6049 11.7073 18.5041 11.1607C21.2679 9.48812 22.7474 5.59173 22.4624 0.739044ZM3.72854 10.8372C2.29036 9.96626 1.47658 7.90462 1.49627 5.24952C4.15137 5.22702 6.21301 6.04362 7.08398 7.48179C7.53868 8.23182 7.61275 9.10654 7.31461 10.0075L5.02609 7.71899C4.73121 7.43883 4.26676 7.44478 3.97914 7.7324C3.69153 8.02001 3.68558 8.48446 3.96574 8.77934L6.25426 11.0679C5.35329 11.366 4.47951 11.2919 3.72854 10.8372ZM17.7269 9.87907C16.4706 10.6394 14.994 10.6975 13.4939 10.0666L18.5275 5.03202C18.8077 4.73713 18.8017 4.27268 18.5141 3.98507C18.2265 3.69745 17.7621 3.69151 17.4672 3.97166L12.4326 8.99966C11.7988 7.49961 11.856 6.02205 12.6201 4.76669C13.927 2.61036 17.0265 1.40844 20.9951 1.50126C21.0851 5.46891 19.8851 8.57215 17.7269 9.87907Z" fill="white"/>
</svg>
