<svg width="20" height="17" viewBox="0 0 20 17" fill="none" xmlns="http://www.w3.org/2000/svg">
<path fill-rule="evenodd" clip-rule="evenodd" d="M19.9656 16.1261C19.9656 16.5502 19.6218 16.894 19.1977 16.894H0.767909C0.343804 16.894 0 16.5502 0 16.1261V0.767909C0 0.343804 0.343804 0 0.767909 0C1.19201 0 1.53582 0.343804 1.53582 0.767909V9.82635L6.40532 5.56734C6.67841 5.32828 7.08159 5.31306 7.37192 5.53086L13.017 9.76492L18.6919 4.79943C18.8946 4.59874 19.1919 4.52697 19.4639 4.61308C19.7358 4.69919 19.9377 4.92897 19.988 5.20978C20.0383 5.49058 19.9288 5.77613 19.7036 5.95129L13.5603 11.3267C13.2872 11.5657 12.884 11.5809 12.5937 11.3631L6.94862 7.13099L1.53582 11.8671V15.3582H19.1977C19.6218 15.3582 19.9656 15.702 19.9656 16.1261Z" fill="white"/>
</svg>
