<svg width="20" height="20" viewBox="0 0 20 20" fill="none" xmlns="http://www.w3.org/2000/svg">
<path fill-rule="evenodd" clip-rule="evenodd" d="M18.9744 6.36025L2.0552 0.0886616L2.03981 0.0838528C1.48419 -0.107454 0.86812 0.0343827 0.452089 0.449392C0.0360569 0.864402 -0.107295 1.48012 0.0826443 2.03621C0.0838136 2.04147 0.0854223 2.04661 0.0874531 2.0516L6.36385 18.9708C6.57527 19.5895 7.1594 20.003 7.81321 19.9969H7.84207C8.50947 19.9918 9.09511 19.5511 9.28469 18.9111L11.5506 11.5479L18.9138 9.28206C19.5483 9.08678 19.9861 8.50652 19.9997 7.84271C20.0132 7.1789 19.5995 6.58125 18.9734 6.36025H18.9744ZM18.4617 7.81154L11.0986 10.0774C10.6119 10.2274 10.231 10.6083 10.081 11.095L7.81514 18.4581L7.80937 18.4418L1.53489 1.53129L18.4444 7.80384L18.4598 7.80961L18.4617 7.81154Z" fill="#121712"/>
</svg>
