<svg width="20" height="17" viewBox="0 0 20 17" fill="none" xmlns="http://www.w3.org/2000/svg">
<path fill-rule="evenodd" clip-rule="evenodd" d="M19.9655 16.126C19.9655 16.5501 19.6217 16.8939 19.1976 16.8939H0.767904C0.343802 16.8939 0 16.5501 0 16.126V0.767904C0 0.343802 0.343802 0 0.767904 0C1.19201 0 1.53581 0.343802 1.53581 0.767904V9.82629L6.40528 5.5673C6.67837 5.32825 7.08155 5.31303 7.37188 5.53083L13.0169 9.76486L18.6917 4.7994C18.8945 4.59871 19.1918 4.52695 19.4637 4.61305C19.7357 4.69916 19.9375 4.92894 19.9878 5.20974C20.0381 5.49055 19.9286 5.7761 19.7035 5.95126L13.5602 11.3266C13.2871 11.5656 12.884 11.5809 12.5936 11.3631L6.94857 7.13095L1.53581 11.867V15.3581H19.1976C19.6217 15.3581 19.9655 15.7019 19.9655 16.126Z" fill="#171712"/>
</svg>
