<svg width="18" height="19" viewBox="0 0 18 19" fill="none" xmlns="http://www.w3.org/2000/svg">
<path fill-rule="evenodd" clip-rule="evenodd" d="M17.9482 0.756654C17.926 0.376875 17.623 0.073861 17.2432 0.0516825C10.1063 -0.367363 4.38968 1.7813 1.95228 5.81239C1.10741 7.19131 0.691077 8.79008 0.756083 10.4059C0.809518 11.8984 1.2445 13.4058 2.04884 14.8917L0.219854 16.7198C0.0302879 16.9093 -0.0437461 17.1856 0.0256399 17.4446C0.095026 17.7035 0.297291 17.9058 0.556243 17.9752C0.815196 18.0446 1.09149 17.9705 1.28106 17.781L3.10911 15.952C4.59405 16.7554 6.10243 17.1904 7.59393 17.2438C7.6983 17.2475 7.80236 17.2494 7.9061 17.2494C9.41705 17.2535 10.8994 16.8374 12.1875 16.0476C16.2186 13.6102 18.3682 7.89449 17.9482 0.756654ZM11.4141 14.7651C9.28136 16.057 6.75678 16.0776 4.22282 14.8373L12.5315 6.52954C12.8246 6.2365 12.8246 5.76138 12.5315 5.46834C12.2385 5.17529 11.7634 5.17529 11.4703 5.46834L3.16255 13.7808C1.92603 11.2497 1.94385 8.71852 3.23473 6.58954C5.30558 3.17062 10.2282 1.29851 16.482 1.52162C16.7061 7.77074 14.833 12.6943 11.4141 14.7651Z" fill="#171712"/>
</svg>
