<svg width="20" height="20" viewBox="0 0 20 20" fill="none" xmlns="http://www.w3.org/2000/svg">
<path fill-rule="evenodd" clip-rule="evenodd" d="M18.9744 6.36027L2.05517 0.0886618L2.03979 0.083853C1.48416 -0.107454 0.868091 0.0343828 0.452058 0.449393C0.0360257 0.864404 -0.107326 1.48012 0.0826132 2.03622C0.0837825 2.04147 0.0853912 2.04662 0.087422 2.0516L6.36384 18.9708C6.57526 19.5895 7.15939 20.0031 7.8132 19.997H7.84205C8.50946 19.9919 9.0951 19.5511 9.28469 18.9112L11.5506 11.548L18.9138 9.28208C19.5484 9.08681 19.9861 8.50654 19.9997 7.84273C20.0132 7.17891 19.5995 6.58127 18.9734 6.36027H18.9744ZM18.4618 7.81156L11.0986 10.0775C10.6119 10.2274 10.2309 10.6083 10.081 11.095L7.81512 18.4582L7.80935 18.4418L1.53486 1.53129L18.4444 7.80386L18.4598 7.80963L18.4618 7.81156Z" fill="white"/>
</svg>
